# xmcd CD database file
#
# Track frame offsets:
#	150
#	12968
#	26917
#	41455
#	56288
#	71661
#	84006
#	96019
#	107946
#	130378
#	149464
#	155095
#	164552
#	168381
#	186855
#	241567
#	256977
#	270441
#	283077
#	296960
#	309437
#	322832
#
# Disc length: 4500 seconds
#
# Revision: 1
# Processed by: cddbd v1.5.2PL0 Copyright (c) Steve Scherf et al.
# Submitted via: CDex 1.51
#
DISCID=36119216
DTITLE=Benny Goodman - Seven Come Eleven, cd 1
DYEAR=2005
DGENRE=Jazz
TTITLE0=That's A-Plenty
TTITLE1=Deep Harlem
TTITLE2=Music Hall Rag
TTITLE3=Who?
TTITLE4=Whispering
TTITLE5=He Ain't Got Rhythm
TTITLE6=Rosetta
TTITLE7=Runnin' Wild
TTITLE8=St. Louis Blues
TTITLE9=Don't Be That Way
TTITLE10=Sensation Rag
TTITLE11=I'm Coming Virginia
TTITLE12=Shine
TTITLE13=Life Goes To A Party
TTITLE14=Sing Sing Sing
TTITLE15=Opus 1/2
TTITLE16=Topsy
TTITLE17=Rose Room
TTITLE18=Honeysuckle
TTITLE19=Seven Come Eleven
TTITLE20=I'm Confessin'
TTITLE21=Flying Home
EXTD=YEAR: 2005
EXTT0=
EXTT1=
EXTT2=
EXTT3=
EXTT4=
EXTT5=
EXTT6=
EXTT7=
EXTT8=
EXTT9=
EXTT10=
EXTT11=
EXTT12=
EXTT13=
EXTT14=
EXTT15=
EXTT16=
EXTT17=
EXTT18=
EXTT19=
EXTT20=
EXTT21=
PLAYORDER=
